{"title":"P2 A New Level of Terror 2007 DVDRip Xvid AC3 LKRG","uid":10743882,"size":951426776,"categoryP":"video","categoryS":"movies","magnet":"?xt=urn:btih:5e637def2aca2169e70fa2e378c56d8b79ff35f9&amp;dn=P2+A+New+Level+of+Terror+2007+DVDRip+Xvid+AC3+LKRG&amp;tr=udp%3A%2F%2Ftracker.openbittorrent.com%3A80&amp;tr=udp%3A%2F%2Fopen.demonii.com%3A1337&amp;tr=udp%3A%2F%2Ftracker.coppersurfer.tk%3A6969&amp;tr=udp%3A%2F%2Fexodus.desync.com%3A6969","seeders":2,"leechers":1,"uploader":".BONE.","files":2,"time":1407792680,"description":"PLOT\n\nA businesswoman is pursued by a psychopath after being locked in a parking garage on Christmas Eve.\n\nRuntime ..........: 1h 37mn\nFile Size ........: 907 MB\nResolution .......: 720 x 368 &lt;a href=&quot;\nhttp://www.imdb.com/title/tt0804516/&quot; rel=&quot;nofollow&quot; target=&quot;_NEW&quot;&gt;\nhttp://www.imdb.com/title/tt0804516/&lt;/a&gt;\nGenre ............: Horror,Thriller\nLanguage .........: English\nSubtitles ........: None\nComplete name : P2 A New Level of Terror 2007 DVDRip Xvid AC3 LKRGP2_LKRG.avi\nFormat : AVI\nFormat/Info : Audio Video Interleave\nFile size : 907 MiB\nDuration : 1h 37mn\nOverall bit rate : 1 300 Kbps\nWriting application : VirtualDubMod 1.5.10.2 (build 2540/release)\nWriting library : VirtualDubMod build 2540/release\nVideo\nID : 0\nFormat : MPEG-4 Visual\nFormat profile : Advanced Simple@L5\nFormat settings, BVOP : 2\nFormat settings, QPel : No\nFormat settings, GMC : No warppoints\nFormat settings, Matrix : Default (H.263)\nMuxing mode : Packed bitstream\nCodec ID : XVID\nCodec ID/Hint : XviD\nDuration : 1h 37mn\nBit rate : 842 Kbps\nWidth : 720 pixels\nHeight : 368 pixels\nDisplay aspect ratio : 2.40:1\nFrame rate : 23.976 fps\nColor space : YUV\nChroma subsampling : 4:2:0\nBit depth : 8 bits\nScan type : Progressive\nCompression mode : Lossy\nBits/(Pixel*Frame) : 0.133\nStream size : 588 MiB (65%)\nWriting library : XviD 1.2.1 (UTC 2008-12-04)\nAudio\nID : 1\nFormat : AC-3\nFormat/Info : Audio Coding 3\nMode extension : CM (complete main)\nFormat settings, Endianness : Big\nCodec ID : 2000\nDuration : 1h 37mn\nBit rate mode : Constant\nBit rate : 448 Kbps\nChannel(s) : 6 channels\nChannel positions : Front: L C R, Side: L R, LFE\nSampling rate : 48.0 KHz\nBit depth : 16 bits\nCompression mode : Lossy\nStream size : 313 MiB (34%)\nAlignment : Split accross interleaves\nInterleave, duration : 42 ms (1.00 video frame)\nInterleave, preload duration : 500 ms","torrent":{"xt":"urn:btih:5e637def2aca2169e70fa2e378c56d8b79ff35f9","amp;dn":"P2+A+New+Level+of+Terror+2007+DVDRip+Xvid+AC3+LKRG","amp;tr":["udp%3A%2F%2Ftracker.openbittorrent.com%3A80","udp%3A%2F%2Fopen.demonii.com%3A1337","udp%3A%2F%2Ftracker.coppersurfer.tk%3A6969","udp%3A%2F%2Fexodus.desync.com%3A6969"],"infoHash":"5e637def2aca2169e70fa2e378c56d8b79ff35f9","infoHashBuffer":{"type":"Buffer","data":[94,99,125,239,42,202,33,105,231,15,162,227,120,197,109,139,121,255,53,249]},"announce":[],"urlList":[]}}